inDegrees=yes
name=ik_S53_A12_T02
DataType=double
version=3
OpenSimVersion=4.3-2021-08-27-4bc7ad9
endheader
time	pelvis_tilt	pelvis_list	pelvis_rotation	pelvis_tx	pelvis_ty	pelvis_tz	hip_flexion_r	hip_adduction_r	hip_rotation_r	knee_angle_r	knee_angle_r_beta	ankle_angle_r	subtalar_angle_r	mtp_angle_r	hip_flexion_l	hip_adduction_l	hip_rotation_l	knee_angle_l	knee_angle_l_beta	ankle_angle_l	subtalar_angle_l	mtp_angle_l	lumbar_extension	lumbar_bending	lumbar_rotation	arm_flex_r	arm_add_r	arm_rot_r	elbow_flex_r	pro_sup_r	wrist_flex_r	wrist_dev_r	arm_flex_l	arm_add_l	arm_rot_l	elbow_flex_l	pro_sup_l	wrist_flex_l	wrist_dev_l
9.283333333333374	-2.826470206259739	-1.007480983726189	30.19028498441363	0	0.9399999999999999	0	31.87248066354514	-9.539338984367484	-8.871678768612876	36.67636789408792	0.640123377424573	0	0	0	31.87248066354514	-9.539338984367484	-8.871678768612876	36.67636789408792	0.640123377424573	0	0	0	-2.208130641053789	0.6488815525411603	9.451073211433895	19.07765505609415	-10.950580379567	-3.586215288940576	3.366188297799555	136.0338646592891	0	0	100.9564598203513	-36.70280335132406	55.3283032638166	43.21612050630905	37.31636204121545	0	0
9.300000000000042	-2.802955066739178	-1.016603495364909	30.2580303454074	0	0.9399999999999999	0	31.87410373918862	-9.539528832319602	-8.871978860934927	36.67798796982837	0.6401516530803757	0	0	0	31.87410373918862	-9.539528832319602	-8.871978860934927	36.67798796982837	0.6401516530803757	0	0	0	-2.192349622448405	0.6288000178924624	9.457325367169638	19.06183814589053	-10.95908374340096	-3.565900343639086	3.337083884830013	135.9470121921541	0	0	101.0124774226123	-36.70712666205652	55.35888738308572	43.32618910540885	37.54092489617645	0	0
9.316666666666709	-2.760634835167266	-1.038919963382246	30.33905076813297	0	0.9399999999999999	0	31.87661186373749	-9.539824846336119	-8.872445304197921	36.68047077300263	0.6401949861704453	0	0	0	31.87661186373749	-9.539824846336119	-8.872445304197921	36.68047077300263	0.6401949861704453	0	0	0	-2.167215628451121	0.588330368954601	9.452088890187699	19.04889195850372	-10.94986798910596	-3.493955990341002	3.19737739865342	135.905742415759	0	0	101.0311001461865	-36.69910256889248	55.40790932058405	43.44423573425061	37.90005883568648	0	0
9.333333333333377	-2.751299629672032	-1.034699306381383	30.38631347034203	0	0.9399999999999999	0	31.87780073112548	-9.539963490123819	-8.872664716322685	36.68165997333249	0.6402157416316674	0	0	0	31.87780073112548	-9.539963490123819	-8.872664716322685	36.68165997333249	0.6402157416316674	0	0	0	-2.157106400528242	0.5873338054428923	9.449643451759682	19.03404352694153	-11.03123705376026	-3.495219076663509	3.138518510881494	135.970576054637	0	0	101.0171810054612	-36.73673904811652	55.46960911142438	43.49059594560779	38.03729755678421	0	0
9.350000000000044	-2.741651519425782	-1.047007494420597	30.43098719258052	0	0.9399999999999999	0	31.88131856002752	-9.540379435141059	-8.873319792209289	36.68513448105184	0.6402763832312559	0	0	0	31.88131856002752	-9.540379435141059	-8.873319792209289	36.68513448105184	0.6402763832312559	0	0	0	-2.155847362478038	0.5738603898172582	9.404329387820567	19.09851957007275	-10.99262316238377	-3.399634824484337	3.071573295298685	135.8956774647918	0	0	100.9660401251977	-36.83807393493892	55.46364751171867	43.56410786862721	38.56601727265237	0	0
9.366666666666712	-2.705130123381595	-1.052446607338706	30.53072955580779	0	0.9399999999999999	0	31.88440842671683	-9.540744953093853	-8.873895406198173	36.68818359504299	0.64032960030967	0	0	0	31.88440842671683	-9.540744953093853	-8.873895406198173	36.68818359504299	0.64032960030967	0	0	0	-2.127340309693596	0.5508172346493789	9.398510831398116	19.12015271738508	-11.02067815792031	-3.332923713960141	2.954716515809555	135.8606876120464	0	0	100.9207064296703	-36.82154782231024	55.51244317306776	43.59645200131826	39.07711087559002	0	0
9.383333333333379	-2.680850083186078	-1.057498811295596	30.6215341875124	0	0.9399999999999999	0	31.88788871905015	-9.541156611417588	-8.874543766578153	36.69161679909451	0.6403895210242619	0	0	0	31.88788871905015	-9.541156611417588	-8.874543766578153	36.69161679909451	0.6403895210242619	0	0	0	-2.109122651244642	0.5339048852826354	9.400791056426833	19.08836326144139	-11.04668543724394	-3.426498387735433	2.967859835098638	135.9387653059371	0	0	100.8552829338959	-36.82862474985352	55.61677172882411	43.65370545913714	39.48157684967481	0	0
9.400000000000047	-2.652168868749968	-1.055462915080639	30.72399231466477	0	0.9399999999999999	0	31.88976053913556	-9.541377159705419	-8.874891631261448	36.69346914009538	0.6404218504735969	0	0	0	31.88976053913556	-9.541377159705419	-8.874891631261448	36.69346914009538	0.6404218504735969	0	0	0	-2.083121911403764	0.5198603440626011	9.42420335402273	19.08984156685199	-11.10222435387129	-3.429295212382341	2.975639200305475	135.9264199102847	0	0	100.7902723824822	-36.78914287400718	55.75417146729927	43.68127462569431	39.70466519228485	0	0
9.416666666666714	-2.615886470885352	-1.065605042642428	30.80949734214007	0	0.9399999999999999	0	31.89381747436572	-9.541856863317419	-8.875647377371974	36.6974692191558	0.6404916650235413	0	0	0	31.89381747436572	-9.541856863317419	-8.875647377371974	36.6974692191558	0.6404916650235413	0	0	0	-2.056689118943801	0.4908766510258304	9.458280700894724	19.01833809249012	-11.09148217303943	-3.577031266793459	3.116026058274402	136.0351700066069	0	0	100.7254135118113	-36.7085396561791	55.84487672379483	43.74969002969073	39.68014841202084	0	0
9.433333333333382	-2.593364472511229	-1.08562258582007	30.91595327146317	0	0.9399999999999999	0	31.89665424497259	-9.542191187190612	-8.876174758083376	36.70027315489039	0.6405406029341242	0	0	0	31.89665424497259	-9.542191187190612	-8.876174758083376	36.70027315489039	0.6405406029341242	0	0	0	-2.047666509363413	0.4618045038501604	9.463322823736481	19.14764759338689	-11.12077627635048	-3.45545494543619	3.093260786193528	135.8906063443607	0	0	100.7075509133626	-36.63979672414523	55.96209005572265	43.80323818325442	40.01288710607675	0	0
9.450000000000049	-2.581395987907435	-1.104004671939071	30.99488701099217	0	0.9399999999999999	0	31.8988236455687	-9.542446696360297	-8.87657792650867	36.70241807834439	0.6405780389105997	0	0	0	31.8988236455687	-9.542446696360297	-8.87657792650867	36.70241807834439	0.6405780389105997	0	0	0	-2.046540011256258	0.4388199807063341	9.484928593715649	19.23780283100258	-11.12399390894956	-3.344773195026975	3.143138012055576	135.7727961903446	0	0	100.723746117831	-36.53885834311195	55.97951022693125	43.81269317343317	40.02107696718512	0	0
9.466666666666717	-2.56956942719292	-1.1153369171384	31.05433303788907	0	0.9399999999999999	0	31.90283703006624	-9.54291617623063	-8.87732060676163	36.70640823642366	0.6406476803067579	0	0	0	31.90283703006624	-9.54291617623063	-8.87732060676163	36.70640823642366	0.6406476803067579	0	0	0	-2.042652436209745	0.4237451445484813	9.466431795511212	19.31666716068854	-11.11550278189164	-3.123355073571009	3.03048974870679	135.504087057448	0	0	100.7459498435905	-36.48039736442961	56.01903482333994	43.87477095347645	40.08951152231168	0	0
9.483333333333384	-2.563260938070139	-1.139481295208711	31.12043165451254	0	0.9399999999999999	0	31.94159053938948	-9.546967808664627	-8.884116049980605	36.74495756450122	0.6413204930061429	0	0	0	31.94159053938948	-9.546967808664627	-8.884116049980605	36.74495756450122	0.6413204930061429	0	0	0	-2.051343152022669	0.3998234824577128	9.461410002147948	19.33293205383004	-11.08038591951642	-3.221499472414728	3.197138880598769	135.6177570900024	0	0	100.772683673543	-36.52793414891521	56.08553359674745	44.08230560612191	40.03491781055844	0	0
9.500000000000052	-2.545918556850745	-1.167861661226828	31.20557437001059	0	0.9399999999999999	0	31.94428094645376	-9.547283674264159	-8.884615507009203	36.74761072997508	0.641366799479262	0	0	0	31.94428094645376	-9.547283674264159	-8.884615507009203	36.74761072997508	0.641366799479262	0	0	0	-2.050884879879489	0.3654793996059917	9.482529857251842	19.41441031700559	-11.05134210450046	-3.111956237704168	3.280504383979984	135.5027726407654	0	0	100.7938478745975	-36.49417020386628	56.12516226599626	44.19583670154864	40.15079114254041	0	0
9.516666666666719	-2.543564693374428	-1.173855338841668	31.23059200240358	0	0.9399999999999999	0	31.94775152791535	-9.547691754523036	-8.885260490305761	36.75102701264299	0.6414264248599958	0	0	0	31.94775152791535	-9.547691754523036	-8.885260490305761	36.75102701264299	0.6414264248599958	0	0	0	-2.052547007006504	0.3602767785389547	9.455044465888857	19.50964005602163	-11.02771519590564	-2.877513319528861	3.361163151116328	135.3847626084945	0	0	100.7878799899959	-36.58822194775075	56.16001549606975	44.2926359805491	40.26152405854291	0	0
9.533333333333387	-2.527246439032464	-1.191852159626942	31.32153543172304	0	0.9399999999999999	0	31.95039716679117	-9.548001950850297	-8.885751305028823	36.75363685510077	0.6414719752038425	0	0	0	31.95039716679117	-9.548001950850297	-8.885751305028823	36.75363685510077	0.6414719752038425	0	0	0	-2.047811168841331	0.335702186327666	9.468087752251984	19.59020509713732	-10.98976056575217	-2.78527900104142	3.440985343949912	135.2974074983517	0	0	100.7886241530899	-36.57793585802217	56.27380322770821	44.38597299150407	40.52649216315857	0	0
9.550000000000054	-2.507383155486599	-1.1985282821095	31.3988596258414	0	0.9399999999999999	0	31.95307503934492	-9.548315933344508	-8.886248145615395	36.75627744228214	0.6415180621443434	0	0	0	31.95307503934492	-9.548315933344508	-8.886248145615395	36.75627744228214	0.6415180621443434	0	0	0	-2.03434383982457	0.3193314266868537	9.472774372344219	19.63047064252673	-10.94175302861794	-2.683345185160171	3.528579431034969	135.2050353551803	0	0	100.7863671323601	-36.5899967146259	56.41471227620319	44.44492511433909	40.79231258876772	0	0
9.566666666666721	-2.497037185571446	-1.222604390316782	31.46469057308385	0	0.9399999999999999	0	31.95689314774931	-9.548764561617624	-8.886957581402461	36.76003337949499	0.6415836156152058	0	0	0	31.95689314774931	-9.548764561617624	-8.886957581402461	36.76003337949499	0.6415836156152058	0	0	0	-2.038247586325161	0.2933511196766109	9.470542544268532	19.70345193452475	-10.86890508190695	-2.576872961414669	3.629849444867723	135.1310388334153	0	0	100.8160563472925	-36.66444979438091	56.55824881907203	44.55387290495624	41.01579494031286	0	0
9.583333333333389	-2.490302872072375	-1.228822726132272	31.52637411178433	0	0.9399999999999999	0	31.96011303959798	-9.549137576246476	-8.887550491152821	36.7632397443264	0.641639577238534	0	0	0	31.96011303959798	-9.549137576246476	-8.887550491152821	36.7632397443264	0.641639577238534	0	0	0	-2.035931156068344	0.2846724348676758	9.465451035119299	19.70074622771619	-10.87755042395411	-2.628598597623494	3.605743377361736	135.134380140314	0	0	100.8174592704672	-36.79180200132264	56.59955185004325	44.84450889869702	41.08604662316678	0	0
9.600000000000056	-2.480814888384387	-1.255189590634854	31.60940931525704	0	0.9399999999999999	0	31.96270293328721	-9.549439781844063	-8.88802965329366	36.76580117332445	0.6416842826081062	0	0	0	31.96270293328721	-9.549439781844063	-8.88802965329366	36.76580117332445	0.6416842826081062	0	0	0	-2.041488810484378	0.2566187887919287	9.475070346624925	19.75530452618761	-10.81040364345563	-2.580887687555859	3.71019207008966	135.0878579360264	0	0	100.7690777181072	-36.91060312077856	56.55539660151685	45.18622866325923	41.05884183386975	0	0
9.616666666666724	-2.486488457333612	-1.278916050796362	31.69463171032929	0	0.9399999999999999	0	31.96529951540799	-9.549730866934636	-8.888497849391374	36.76846103481375	0.6417307059487413	0	0	0	31.96529951540799	-9.549730866934636	-8.888497849391374	36.76846103481375	0.6417307059487413	0	0	0	-2.058883285767626	0.2400433398741739	9.461955856535166	19.78821911556283	-10.7599149162665	-2.651938871060777	3.825302529581685	135.1654591564997	0	0	100.7221550503746	-37.12977217099426	56.47267351336125	45.77730686676401	40.79890450189676	0	0
9.633333333333391	-2.465023555294878	-1.293119124070823	31.75529324380981	0	0.9399999999999999	0	31.9695499696538	-9.550228924517709	-8.88928650498668	36.77264529283222	0.6418037350279165	0	0	0	31.9695499696538	-9.550228924517709	-8.88928650498668	36.77264529283222	0.6418037350279165	0	0	0	-2.048872239865738	0.2182551687140644	9.424666196709644	19.82487057061574	-10.66986987915685	-2.370850457167351	3.871716327770913	134.9647828773331	0	0	100.5179118730656	-37.50078737566444	56.39601010879878	46.23583102733917	40.80693823437158	0	0
